<mxfile host="app.diagrams.net" agent="Mozilla/5.0 (Windows NT 10.0; Win64; x64) AppleWebKit/537.36 (KHTML, like Gecko) Chrome/131.0.0.0 Safari/537.36 Edg/131.0.0.0" version="25.0.1">
  <diagram name="Página-1" id="Qre8xRtkXINu6mSkF_Qo">
    <mxGraphModel dx="2003" dy="1700" grid="1" gridSize="10" guides="1" tooltips="1" connect="1" arrows="1" fold="1" page="1" pageScale="1" pageWidth="827" pageHeight="1169" math="0" shadow="0">
      <root>
        <mxCell id="0" />
        <mxCell id="1" parent="0" />
        <mxCell id="X_uEDLT4WlRVR4zhBA6H-5" style="edgeStyle=orthogonalEdgeStyle;rounded=0;orthogonalLoop=1;jettySize=auto;html=1;exitX=0.25;exitY=0;exitDx=0;exitDy=0;entryX=0;entryY=0.75;entryDx=0;entryDy=0;" edge="1" parent="1" source="X_uEDLT4WlRVR4zhBA6H-7" target="X_uEDLT4WlRVR4zhBA6H-19">
          <mxGeometry relative="1" as="geometry" />
        </mxCell>
        <mxCell id="X_uEDLT4WlRVR4zhBA6H-6" value="realiza" style="edgeLabel;html=1;align=center;verticalAlign=middle;resizable=0;points=[];" connectable="0" vertex="1" parent="X_uEDLT4WlRVR4zhBA6H-5">
          <mxGeometry x="0.1335" y="2" relative="1" as="geometry">
            <mxPoint as="offset" />
          </mxGeometry>
        </mxCell>
        <mxCell id="X_uEDLT4WlRVR4zhBA6H-7" value="&lt;p style=&quot;margin:0px;margin-top:4px;text-align:center;&quot;&gt;&lt;i&gt;&amp;lt;&amp;lt;Entidad&amp;gt;&amp;gt;&lt;/i&gt;&lt;br&gt;&lt;b&gt;Socio&lt;/b&gt;&lt;/p&gt;&lt;hr size=&quot;1&quot;&gt;&lt;p style=&quot;margin:0px;margin-left:4px;&quot;&gt;dni: String&lt;/p&gt;&lt;p style=&quot;margin:0px;margin-left:4px;&quot;&gt;&lt;br&gt;&lt;/p&gt;&lt;p style=&quot;margin:0px;margin-left:4px;&quot;&gt;&lt;span style=&quot;background-color: initial;&quot;&gt;/cuotaPagada: Boolean&lt;/span&gt;&lt;/p&gt;&lt;p style=&quot;margin:0px;margin-left:4px;&quot;&gt;&lt;span style=&quot;background-color: initial;&quot;&gt;&lt;br&gt;&lt;/span&gt;&lt;/p&gt;&lt;p style=&quot;margin:0px;margin-left:4px;&quot;&gt;&lt;span style=&quot;background-color: initial;&quot;&gt;telefono: String&lt;/span&gt;&lt;/p&gt;&lt;p style=&quot;margin:0px;margin-left:4px;&quot;&gt;&lt;br&gt;&lt;/p&gt;&lt;p style=&quot;margin:0px;margin-left:4px;&quot;&gt;&lt;span style=&quot;background-color: initial;&quot;&gt;/numInvitaciones: Integer&lt;/span&gt;&lt;/p&gt;&lt;p style=&quot;margin:0px;margin-left:4px;&quot;&gt;&lt;br&gt;&lt;/p&gt;&lt;p style=&quot;margin:0px;margin-left:4px;&quot;&gt;&lt;br&gt;&lt;/p&gt;" style="verticalAlign=top;align=left;overflow=fill;fontSize=12;fontFamily=Helvetica;html=1;rounded=0;shadow=0;comic=0;labelBackgroundColor=none;strokeWidth=1" vertex="1" parent="1">
          <mxGeometry x="30" y="290" width="190" height="180" as="geometry" />
        </mxCell>
        <mxCell id="X_uEDLT4WlRVR4zhBA6H-8" value="&lt;p style=&quot;margin:0px;margin-top:4px;text-align:center;&quot;&gt;&lt;i&gt;&amp;lt;&amp;lt;Entidad&amp;gt;&amp;gt;&lt;/i&gt;&lt;br&gt;&lt;b&gt;Usuario&lt;/b&gt;&lt;/p&gt;&lt;hr size=&quot;1&quot;&gt;&lt;p style=&quot;margin:0px;margin-left:4px;&quot;&gt;Correo: moronpablo05@gmail.com&lt;/p&gt;&lt;p style=&quot;margin:0px;margin-left:4px;&quot;&gt;&lt;br&gt;&lt;/p&gt;&lt;p style=&quot;margin:0px;margin-left:4px;&quot;&gt;Contraseña: pablomoron12345&lt;/p&gt;&lt;p style=&quot;margin:0px;margin-left:4px;&quot;&gt;&lt;br&gt;&lt;/p&gt;&lt;p style=&quot;margin:0px;margin-left:4px;&quot;&gt;nombre: Pablo&lt;/p&gt;&lt;p style=&quot;margin:0px;margin-left:4px;&quot;&gt;&lt;br&gt;&lt;/p&gt;&lt;p style=&quot;margin:0px;margin-left:4px;&quot;&gt;apellido1: Morón&lt;/p&gt;&lt;p style=&quot;margin:0px;margin-left:4px;&quot;&gt;apellido2: García&lt;/p&gt;&lt;p style=&quot;margin:0px;margin-left:4px;&quot;&gt;&lt;br&gt;&lt;/p&gt;&lt;p style=&quot;margin:0px;margin-left:4px;&quot;&gt;fechaNacimiento: 18/03/2005&lt;/p&gt;" style="verticalAlign=top;align=left;overflow=fill;fontSize=12;fontFamily=Helvetica;html=1;rounded=0;shadow=0;comic=0;labelBackgroundColor=none;strokeWidth=1" vertex="1" parent="1">
          <mxGeometry x="235" width="195" height="200" as="geometry" />
        </mxCell>
        <mxCell id="X_uEDLT4WlRVR4zhBA6H-12" style="edgeStyle=orthogonalEdgeStyle;rounded=0;orthogonalLoop=1;jettySize=auto;html=1;entryX=0.026;entryY=0.776;entryDx=0;entryDy=0;entryPerimeter=0;endArrow=classic;endFill=1;" edge="1" parent="1" source="X_uEDLT4WlRVR4zhBA6H-13" target="X_uEDLT4WlRVR4zhBA6H-60">
          <mxGeometry relative="1" as="geometry">
            <Array as="points">
              <mxPoint x="520" y="131" />
            </Array>
          </mxGeometry>
        </mxCell>
        <mxCell id="X_uEDLT4WlRVR4zhBA6H-13" value="&lt;p style=&quot;margin:0px;margin-top:4px;text-align:center;&quot;&gt;&lt;i&gt;&amp;lt;&amp;lt;Entidad&amp;gt;&amp;gt;&lt;/i&gt;&lt;br&gt;&lt;b&gt;Administrador&lt;/b&gt;&lt;/p&gt;&lt;hr size=&quot;1&quot;&gt;&lt;p style=&quot;margin:0px;margin-left:4px;&quot;&gt;&amp;nbsp;&lt;/p&gt;" style="verticalAlign=top;align=left;overflow=fill;fontSize=12;fontFamily=Helvetica;html=1;rounded=0;shadow=0;comic=0;labelBackgroundColor=none;strokeWidth=1" vertex="1" parent="1">
          <mxGeometry x="450" y="290" width="190" height="150" as="geometry" />
        </mxCell>
        <mxCell id="X_uEDLT4WlRVR4zhBA6H-14" value="&lt;p style=&quot;margin:0px;margin-top:4px;text-align:center;&quot;&gt;&lt;i&gt;&amp;lt;&amp;lt;Entidad&amp;gt;&amp;gt;&lt;/i&gt;&lt;br&gt;&lt;b&gt;Pista&lt;/b&gt;&lt;/p&gt;&lt;hr size=&quot;1&quot;&gt;&lt;p style=&quot;margin:0px;margin-left:4px;&quot;&gt;nombre: Pista 1&lt;/p&gt;&lt;p style=&quot;margin:0px;margin-left:4px;&quot;&gt;Tipo: Padel&lt;/p&gt;&lt;p style=&quot;margin:0px;margin-left:4px;&quot;&gt;capacidadMax: 4&lt;/p&gt;" style="verticalAlign=top;align=left;overflow=fill;fontSize=12;fontFamily=Helvetica;html=1;rounded=0;shadow=0;comic=0;labelBackgroundColor=none;strokeWidth=1" vertex="1" parent="1">
          <mxGeometry x="540" y="-230" width="190" height="140" as="geometry" />
        </mxCell>
        <mxCell id="X_uEDLT4WlRVR4zhBA6H-15" style="edgeStyle=orthogonalEdgeStyle;rounded=0;orthogonalLoop=1;jettySize=auto;html=1;exitX=1;exitY=0.5;exitDx=0;exitDy=0;entryX=0;entryY=0.5;entryDx=0;entryDy=0;endArrow=classic;endFill=1;" edge="1" parent="1" source="X_uEDLT4WlRVR4zhBA6H-19" target="X_uEDLT4WlRVR4zhBA6H-14">
          <mxGeometry relative="1" as="geometry" />
        </mxCell>
        <mxCell id="X_uEDLT4WlRVR4zhBA6H-16" value="tieneLugarEn" style="edgeLabel;html=1;align=center;verticalAlign=middle;resizable=0;points=[];" connectable="0" vertex="1" parent="X_uEDLT4WlRVR4zhBA6H-15">
          <mxGeometry x="-0.1209" y="-3" relative="1" as="geometry">
            <mxPoint x="2" y="-5" as="offset" />
          </mxGeometry>
        </mxCell>
        <mxCell id="X_uEDLT4WlRVR4zhBA6H-19" value="&lt;p style=&quot;margin:0px;margin-top:4px;text-align:center;&quot;&gt;&lt;i&gt;&amp;lt;&amp;lt;Entidad&amp;gt;&amp;gt;&lt;/i&gt;&lt;br&gt;&lt;b&gt;Reserva&lt;/b&gt;&lt;/p&gt;&lt;hr size=&quot;1&quot;&gt;&lt;p style=&quot;margin:0px;margin-left:4px;&quot;&gt;fechaInicioReserva: 11:00&lt;/p&gt;&lt;p style=&quot;margin:0px;margin-left:4px;&quot;&gt;fechaFinReserva : 12:30&lt;/p&gt;&lt;p style=&quot;margin:0px;margin-left:4px;&quot;&gt;&lt;br&gt;&lt;/p&gt;" style="verticalAlign=top;align=left;overflow=fill;fontSize=12;fontFamily=Helvetica;html=1;rounded=0;shadow=0;comic=0;labelBackgroundColor=none;strokeWidth=1" vertex="1" parent="1">
          <mxGeometry x="240" y="-170" width="190" height="140" as="geometry" />
        </mxCell>
        <mxCell id="X_uEDLT4WlRVR4zhBA6H-20" style="edgeStyle=orthogonalEdgeStyle;rounded=0;orthogonalLoop=1;jettySize=auto;html=1;entryX=0.621;entryY=1.003;entryDx=0;entryDy=0;entryPerimeter=0;endArrow=block;endFill=1;" edge="1" parent="1" source="X_uEDLT4WlRVR4zhBA6H-13" target="X_uEDLT4WlRVR4zhBA6H-8">
          <mxGeometry relative="1" as="geometry">
            <Array as="points">
              <mxPoint x="545" y="280" />
              <mxPoint x="353" y="280" />
            </Array>
          </mxGeometry>
        </mxCell>
        <mxCell id="X_uEDLT4WlRVR4zhBA6H-22" style="edgeStyle=orthogonalEdgeStyle;rounded=0;orthogonalLoop=1;jettySize=auto;html=1;endArrow=block;endFill=1;" edge="1" parent="1" source="X_uEDLT4WlRVR4zhBA6H-7" target="X_uEDLT4WlRVR4zhBA6H-8">
          <mxGeometry relative="1" as="geometry">
            <Array as="points">
              <mxPoint x="125" y="280" />
              <mxPoint x="310" y="280" />
            </Array>
          </mxGeometry>
        </mxCell>
        <mxCell id="X_uEDLT4WlRVR4zhBA6H-26" value="R.N.01:&amp;nbsp;Cada socio solo dispone de 7 entradas al mes para poder invitar&amp;nbsp;&lt;div&gt;a no socios. Durante el verano estas aumentarán a 12 cada mes&amp;nbsp;&lt;/div&gt;" style="shape=note;whiteSpace=wrap;html=1;backgroundOutline=1;darkOpacity=0.05;" vertex="1" parent="1">
          <mxGeometry x="-400" y="138" width="430" height="70" as="geometry" />
        </mxCell>
        <mxCell id="X_uEDLT4WlRVR4zhBA6H-27" value="1" style="text;html=1;align=center;verticalAlign=middle;resizable=0;points=[];autosize=1;strokeColor=none;fillColor=none;" vertex="1" parent="1">
          <mxGeometry x="515" y="-132" width="30" height="30" as="geometry" />
        </mxCell>
        <mxCell id="X_uEDLT4WlRVR4zhBA6H-28" value="R.N.08:&lt;div&gt;No se deben solapar reservas en la misma hora&lt;/div&gt;" style="shape=note;whiteSpace=wrap;html=1;backgroundOutline=1;darkOpacity=0.05;" vertex="1" parent="1">
          <mxGeometry x="505" y="-400" width="210" height="100" as="geometry" />
        </mxCell>
        <mxCell id="X_uEDLT4WlRVR4zhBA6H-29" style="edgeStyle=orthogonalEdgeStyle;rounded=0;orthogonalLoop=1;jettySize=auto;html=1;entryX=0.368;entryY=0;entryDx=0;entryDy=0;entryPerimeter=0;dashed=1;endArrow=none;endFill=0;" edge="1" parent="1" source="X_uEDLT4WlRVR4zhBA6H-26" target="X_uEDLT4WlRVR4zhBA6H-7">
          <mxGeometry relative="1" as="geometry">
            <Array as="points">
              <mxPoint x="-185" y="240" />
              <mxPoint x="60" y="240" />
              <mxPoint x="60" y="290" />
            </Array>
          </mxGeometry>
        </mxCell>
        <mxCell id="X_uEDLT4WlRVR4zhBA6H-30" style="edgeStyle=orthogonalEdgeStyle;rounded=0;orthogonalLoop=1;jettySize=auto;html=1;entryX=0.5;entryY=0;entryDx=0;entryDy=0;dashed=1;endArrow=none;endFill=0;" edge="1" parent="1" source="X_uEDLT4WlRVR4zhBA6H-28" target="X_uEDLT4WlRVR4zhBA6H-19">
          <mxGeometry relative="1" as="geometry">
            <mxPoint x="-620" y="-400" as="sourcePoint" />
            <Array as="points">
              <mxPoint x="610" y="-280" />
              <mxPoint x="325" y="-280" />
            </Array>
          </mxGeometry>
        </mxCell>
        <mxCell id="X_uEDLT4WlRVR4zhBA6H-32" value="1" style="text;html=1;align=center;verticalAlign=middle;resizable=0;points=[];autosize=1;strokeColor=none;fillColor=none;" vertex="1" parent="1">
          <mxGeometry x="70" y="270" width="30" height="30" as="geometry" />
        </mxCell>
        <mxCell id="X_uEDLT4WlRVR4zhBA6H-33" value="*" style="text;html=1;align=center;verticalAlign=middle;resizable=0;points=[];autosize=1;strokeColor=none;fillColor=none;" vertex="1" parent="1">
          <mxGeometry x="210" y="-88" width="30" height="30" as="geometry" />
        </mxCell>
        <mxCell id="X_uEDLT4WlRVR4zhBA6H-43" style="edgeStyle=orthogonalEdgeStyle;rounded=0;orthogonalLoop=1;jettySize=auto;html=1;entryX=0.351;entryY=0.007;entryDx=0;entryDy=0;endArrow=none;endFill=0;dashed=1;entryPerimeter=0;" edge="1" parent="1" source="X_uEDLT4WlRVR4zhBA6H-44" target="X_uEDLT4WlRVR4zhBA6H-19">
          <mxGeometry relative="1" as="geometry">
            <Array as="points">
              <mxPoint x="297" y="-280" />
            </Array>
          </mxGeometry>
        </mxCell>
        <mxCell id="X_uEDLT4WlRVR4zhBA6H-44" value="R.N.05:&amp;nbsp;Solo los socios y administradores tendrán permitido hacer reservas de servicios del club" style="shape=note;whiteSpace=wrap;html=1;backgroundOutline=1;darkOpacity=0.05;" vertex="1" parent="1">
          <mxGeometry x="177.5" y="-430" width="295" height="100" as="geometry" />
        </mxCell>
        <mxCell id="X_uEDLT4WlRVR4zhBA6H-45" style="edgeStyle=orthogonalEdgeStyle;rounded=0;orthogonalLoop=1;jettySize=auto;html=1;entryX=0;entryY=0.25;entryDx=0;entryDy=0;endArrow=none;endFill=0;dashed=1;" edge="1" parent="1" source="X_uEDLT4WlRVR4zhBA6H-46" target="X_uEDLT4WlRVR4zhBA6H-19">
          <mxGeometry relative="1" as="geometry">
            <Array as="points">
              <mxPoint x="140" y="-135" />
            </Array>
          </mxGeometry>
        </mxCell>
        <mxCell id="X_uEDLT4WlRVR4zhBA6H-46" value="R.N.06:&amp;nbsp;Cada socio sólo podrá hacer 2 reservas de forma simultánea" style="shape=note;whiteSpace=wrap;html=1;backgroundOutline=1;darkOpacity=0.05;" vertex="1" parent="1">
          <mxGeometry x="-132.5" y="-400" width="295" height="100" as="geometry" />
        </mxCell>
        <mxCell id="X_uEDLT4WlRVR4zhBA6H-47" style="edgeStyle=orthogonalEdgeStyle;rounded=0;orthogonalLoop=1;jettySize=auto;html=1;endArrow=none;endFill=0;dashed=1;" edge="1" parent="1" source="X_uEDLT4WlRVR4zhBA6H-48">
          <mxGeometry relative="1" as="geometry">
            <Array as="points">
              <mxPoint x="-23" y="-100" />
              <mxPoint x="231" y="-100" />
            </Array>
            <mxPoint x="230" y="-100" as="targetPoint" />
          </mxGeometry>
        </mxCell>
        <mxCell id="X_uEDLT4WlRVR4zhBA6H-48" value="R.N.07:&amp;nbsp;Las reservas de pistas se deberán hacer con un máximo de 15 de días de antelación" style="shape=note;whiteSpace=wrap;html=1;backgroundOutline=1;darkOpacity=0.05;" vertex="1" parent="1">
          <mxGeometry x="-170" y="-270" width="295" height="100" as="geometry" />
        </mxCell>
        <mxCell id="X_uEDLT4WlRVR4zhBA6H-54" value="*" style="text;html=1;align=center;verticalAlign=middle;resizable=0;points=[];autosize=1;strokeColor=none;fillColor=none;" vertex="1" parent="1">
          <mxGeometry x="424" y="-125" width="30" height="30" as="geometry" />
        </mxCell>
        <mxCell id="X_uEDLT4WlRVR4zhBA6H-55" style="edgeStyle=orthogonalEdgeStyle;rounded=0;orthogonalLoop=1;jettySize=auto;html=1;entryX=0.021;entryY=0.88;entryDx=0;entryDy=0;entryPerimeter=0;endArrow=classic;endFill=1;" edge="1" parent="1" source="X_uEDLT4WlRVR4zhBA6H-13" target="X_uEDLT4WlRVR4zhBA6H-58">
          <mxGeometry relative="1" as="geometry">
            <Array as="points">
              <mxPoint x="560" y="101" />
            </Array>
          </mxGeometry>
        </mxCell>
        <mxCell id="X_uEDLT4WlRVR4zhBA6H-56" value="crea" style="edgeLabel;html=1;align=center;verticalAlign=middle;resizable=0;points=[];" connectable="0" vertex="1" parent="X_uEDLT4WlRVR4zhBA6H-55">
          <mxGeometry x="-0.3791" relative="1" as="geometry">
            <mxPoint y="20" as="offset" />
          </mxGeometry>
        </mxCell>
        <mxCell id="X_uEDLT4WlRVR4zhBA6H-57" value="lista" style="edgeLabel;html=1;align=center;verticalAlign=middle;resizable=0;points=[];" connectable="0" vertex="1" parent="X_uEDLT4WlRVR4zhBA6H-55">
          <mxGeometry x="-0.0715" y="1" relative="1" as="geometry">
            <mxPoint x="-39" y="70" as="offset" />
          </mxGeometry>
        </mxCell>
        <mxCell id="X_uEDLT4WlRVR4zhBA6H-58" value="*" style="text;html=1;align=center;verticalAlign=middle;resizable=0;points=[];autosize=1;strokeColor=none;fillColor=none;" vertex="1" parent="1">
          <mxGeometry x="425" y="75" width="30" height="30" as="geometry" />
        </mxCell>
        <mxCell id="X_uEDLT4WlRVR4zhBA6H-59" value="1" style="text;html=1;align=center;verticalAlign=middle;resizable=0;points=[];autosize=1;strokeColor=none;fillColor=none;" vertex="1" parent="1">
          <mxGeometry x="560" y="260" width="30" height="30" as="geometry" />
        </mxCell>
        <mxCell id="X_uEDLT4WlRVR4zhBA6H-60" value="*" style="text;html=1;align=center;verticalAlign=middle;resizable=0;points=[];autosize=1;strokeColor=none;fillColor=none;" vertex="1" parent="1">
          <mxGeometry x="425" y="108" width="30" height="30" as="geometry" />
        </mxCell>
        <mxCell id="X_uEDLT4WlRVR4zhBA6H-61" value="*" style="text;html=1;align=center;verticalAlign=middle;resizable=0;points=[];autosize=1;strokeColor=none;fillColor=none;" vertex="1" parent="1">
          <mxGeometry x="515" y="258" width="30" height="30" as="geometry" />
        </mxCell>
        <mxCell id="X_uEDLT4WlRVR4zhBA6H-62" style="edgeStyle=orthogonalEdgeStyle;rounded=0;orthogonalLoop=1;jettySize=auto;html=1;entryX=0.995;entryY=0.852;entryDx=0;entryDy=0;entryPerimeter=0;endArrow=classic;endFill=1;" edge="1" parent="1">
          <mxGeometry relative="1" as="geometry">
            <mxPoint x="480.96449275362346" y="290" as="sourcePoint" />
            <mxPoint x="424.9999999999997" y="153.3599999999999" as="targetPoint" />
            <Array as="points">
              <mxPoint x="480.95" y="153" />
              <mxPoint x="445.95" y="153" />
            </Array>
          </mxGeometry>
        </mxCell>
        <mxCell id="X_uEDLT4WlRVR4zhBA6H-63" value="modifica" style="edgeLabel;html=1;align=center;verticalAlign=middle;resizable=0;points=[];" connectable="0" vertex="1" parent="X_uEDLT4WlRVR4zhBA6H-62">
          <mxGeometry x="-0.1038" y="-1" relative="1" as="geometry">
            <mxPoint y="6" as="offset" />
          </mxGeometry>
        </mxCell>
        <mxCell id="X_uEDLT4WlRVR4zhBA6H-64" style="edgeStyle=orthogonalEdgeStyle;rounded=0;orthogonalLoop=1;jettySize=auto;html=1;entryX=0.998;entryY=0.339;entryDx=0;entryDy=0;entryPerimeter=0;exitX=0.017;exitY=1.01;exitDx=0;exitDy=0;exitPerimeter=0;endArrow=classic;endFill=1;" edge="1" parent="1" source="X_uEDLT4WlRVR4zhBA6H-69">
          <mxGeometry relative="1" as="geometry">
            <mxPoint x="590.0000000000005" y="307" as="sourcePoint" />
            <mxPoint x="424.6199999999999" y="78.01999999999998" as="targetPoint" />
            <Array as="points">
              <mxPoint x="591" y="78" />
            </Array>
          </mxGeometry>
        </mxCell>
        <mxCell id="X_uEDLT4WlRVR4zhBA6H-65" value="borra" style="edgeLabel;html=1;align=center;verticalAlign=middle;resizable=0;points=[];" connectable="0" vertex="1" parent="X_uEDLT4WlRVR4zhBA6H-64">
          <mxGeometry x="-0.5084" relative="1" as="geometry">
            <mxPoint y="12" as="offset" />
          </mxGeometry>
        </mxCell>
        <mxCell id="X_uEDLT4WlRVR4zhBA6H-66" value="*" style="text;html=1;align=center;verticalAlign=middle;resizable=0;points=[];autosize=1;strokeColor=none;fillColor=none;" vertex="1" parent="1">
          <mxGeometry x="475" y="258" width="30" height="30" as="geometry" />
        </mxCell>
        <mxCell id="X_uEDLT4WlRVR4zhBA6H-67" value="*" style="text;html=1;align=center;verticalAlign=middle;resizable=0;points=[];autosize=1;strokeColor=none;fillColor=none;" vertex="1" parent="1">
          <mxGeometry x="425" y="128" width="30" height="30" as="geometry" />
        </mxCell>
        <mxCell id="X_uEDLT4WlRVR4zhBA6H-68" value="*" style="text;html=1;align=center;verticalAlign=middle;resizable=0;points=[];autosize=1;strokeColor=none;fillColor=none;" vertex="1" parent="1">
          <mxGeometry x="424" y="54" width="30" height="30" as="geometry" />
        </mxCell>
        <mxCell id="X_uEDLT4WlRVR4zhBA6H-69" value="1" style="text;html=1;align=center;verticalAlign=middle;resizable=0;points=[];autosize=1;strokeColor=none;fillColor=none;" vertex="1" parent="1">
          <mxGeometry x="590" y="260" width="30" height="30" as="geometry" />
        </mxCell>
        <mxCell id="X_uEDLT4WlRVR4zhBA6H-94" value="*" style="text;html=1;align=center;verticalAlign=middle;resizable=0;points=[];autosize=1;strokeColor=none;fillColor=none;" vertex="1" parent="1">
          <mxGeometry x="245" y="200" width="30" height="30" as="geometry" />
        </mxCell>
      </root>
    </mxGraphModel>
  </diagram>
</mxfile>
